<svg xmlns="http://www.w3.org/2000/svg" width="32" height="32" viewBox="0 0 32 32" fill="none">
  <rect width="32" height="32" rx="8" fill="#0D2416"/>
  <path d="M24 10C24 8.34 22.66 7 21 7C19.34 7 18 8.34 18 10C18 10.68 18.26 11.32 18.68 11.8C17.92 12.32 17.38 13.14 17.16 14.08C16.28 13.4 15.18 13 14 13C12.82 13 11.72 13.4 10.84 14.08C10.62 13.14 10.08 12.32 9.32 11.8C9.74 11.32 10 10.68 10 10C10 8.34 8.66 7 7 7C5.34 7 4 8.34 4 10C4 11.66 5.34 13 7 13C7.2 13 7.38 12.98 7.56 12.94C7.2 13.52 7 14.24 7 15V21C7 22.1 7.9 23 9 23H19C20.1 23 21 22.1 21 21V15C21 14.24 20.8 13.52 20.44 12.94C20.62 12.98 20.8 13 21 13C22.66 13 24 11.66 24 10Z" fill="#00FFAA"/>
</svg>
