<svg width="32" height="32" viewBox="0 0 32 32" fill="none" xmlns="http://www.w3.org/2000/svg">
  <circle cx="16" cy="16" r="16" fill="#0D2416"/>
  <path d="M21.52 10.24C21.4 9.2 20.84 8.56 19.6 8.56C18.6 8.56 17.88 9.08 17.88 9.84C17.88 10.6 18.36 11 19.76 11.28L21.68 11.6C24.44 12.08 25.88 13.4 25.88 15.76C25.88 18.6 23.48 20.2 19.72 20.2C15.76 20.2 13.28 18.4 13.24 15.04H16.88C16.96 16.48 17.92 17.2 19.72 17.2C20.92 17.2 21.92 16.68 21.92 15.8C21.92 15.08 21.44 14.6 20.12 14.32L18.04 13.96C15.32 13.48 13.96 12 13.96 9.84C13.96 7.12 16.32 5.6 19.48 5.6C23.36 5.6 25.32 7.36 25.4 10.24H21.52Z" fill="#14FF70"/>
  <path d="M6.28 20V5.8H9.92V20H6.28Z" fill="#14FF70"/>
</svg>
